<?xml version="1.0" standalone="no"?>
<!DOCTYPE svg PUBLIC "-//W3C//DTD SVG 1.1//EN" "http://www.w3.org/Graphics/SVG/1.1/DTD/svg11.dtd">
<svg xmlns="http://www.w3.org/2000/svg">
<metadata>Copyright (C) 2016 by original authors @ fontello.com</metadata>
<defs>
<font id="fontello" horiz-adv-x="1000" >
<font-face font-family="fontello" font-weight="400" font-stretch="normal" units-per-em="1000" ascent="850" descent="-150" />
<missing-glyph horiz-adv-x="1000" />
<glyph glyph-name="日历" unicode="&#xe800;" d="M800 219l-62 0 0-61 62 0 0 61z m0-123l-62 0 0-61 62 0 0 61z m-184 246l-62 0 0-61 62 0 0 61z m0 431l-246 0 0-62 246 0 0 62z m-338-123c17 0 30 19 30 41l0 102c0 23-13 41-30 41-17 0-31-18-31-41l0-102c0-22 14-41 31-41m430 0c17 0 31 19 31 41l0 102c0 23-14 41-31 41-17 0-31-18-31-41l0-102c0-22 14-41 31-41m-92-431l-62 0 0-61 62 0 0 61z m184 123l-62 0 0-61 62 0 0 61z m-553-246l-62 0 0-61 62 0 0 61z m0 123l-62 0 0-61 62 0 0 61z m676 554l-123 0 0-62 123 0 0-184-861 0 0 184 123 0 0 62-123 0c-63 0-61-64-61-62l0-799c0-60 59-62 61-62l861 0c56 0 61 60 61 62l0 799c0 4-1 62-61 62m0-861l-861 0 0 553 861 0 0-553z m-307 184l-62 0 0-61 62 0 0 61z m-185 123l-61 0 0-61 61 0 0 61z m0 123l-61 0 0-61 61 0 0 61z m0-246l-61 0 0-61 61 0 0 61z m-184 246l-62 0 0-61 62 0 0 61z" horiz-adv-x="1000" />

<glyph glyph-name="注意" unicode="&#xe801;" d="M804 560c-47 82-124 141-215 165-189 51-384-62-435-251-50-189 62-384 251-434 31-8 62-12 92-12 64 0 127 17 184 51 8 6 11 17 6 25-5 8-16 11-24 6-76-46-164-59-249-36-170 46-271 221-225 391s221 271 391 226c82-22 151-75 193-149 43-74 54-160 32-242-7-29-19-56-35-83-5-8-2-19 6-24 8-5 19-2 24 6 18 29 31 60 40 92 24 91 12 187-36 269z m-277-112c-4 5-11 6-17 5l-71-18c-9-2-15-12-12-21 2-10 12-16 21-13l42 10-46-184c-1-6 1-13 5-17 4-3 8-5 12-5 2 0 4 0 6 1l53 18c10 3 15 13 11 22-3 9-13 14-22 11l-23-7 46 181c1 6 0 13-5 17z m20 72l5 18c2 9-4 19-13 21-10 3-19-3-22-13l-4-18c-2-9 3-19 13-21 1 0 3-1 4-1 8 0 15 6 17 14z" horiz-adv-x="1000" />

<glyph glyph-name="ring-铃声" unicode="&#xe802;" d="M883 48c11 0 17-5 17-16 0-12-6-17-17-17l-772 0c-11 0-17 5-17 17 0 11 6 16 17 16 22 0 42 9 59 26s25 36 25 58l17 221c7 102 33 185 78 251 46 66 103 104 173 113l0 53c0 11 6 17 17 17l34 0c11 0 16-6 16-17l0-53c70-9 128-47 173-112s72-149 79-252l17-219c0-23 8-44 24-60 16-17 36-26 60-26z m-82 0c-24 21-36 49-36 84l-16 216c-7 102-34 184-79 246-46 61-103 92-173 92-70 0-128-31-173-92-46-62-72-144-79-246l-17-218c0-33-11-61-35-82l608 0z m-304-134c-35 0-67 13-94 38-7 7-7 15 0 25 6 8 14 8 23 0 19-20 43-29 71-29 28 0 52 9 71 29 9 8 16 8 23 0 7-10 7-18 0-25-25-25-56-38-94-38z" horiz-adv-x="1000" />

<glyph glyph-name="用户" unicode="&#xe803;" d="M500 769c-241 0-437-196-437-438 0-241 196-437 437-437 241 0 438 196 438 437 0 242-197 438-438 438z m0-63c207 0 375-168 375-375 0-83-28-160-74-223-45 72-115 126-198 151 49 33 81 89 81 152 0 101-83 183-184 183-101 0-184-82-184-183 0-64 33-120 82-153-83-25-152-80-197-152-47 62-76 140-76 225 0 207 168 375 375 375z m-121-295c0 66 54 121 121 121s121-55 121-121-54-122-121-122-121 55-121 122z m-134-354c50 92 146 154 257 154 110 0 206-61 256-152-68-63-158-103-258-103-99 0-188 39-255 101z" horiz-adv-x="1000" />

<glyph glyph-name="成功" unicode="&#xe804;" d="M918 700l-569-576-266 293c-18 19-48 20-67 3-20-18-21-48-3-68l333-367 640 648c19 19 19 49 0 68-19 18-49 18-68-1z" horiz-adv-x="1001" />

<glyph glyph-name="关闭" unicode="&#xe805;" d="M485 378c132 129 262 260 393 391 15-14 28-29 43-43-125-126-252-253-379-380-4-5-12-11-12-12 0-5 18-21 24-26 122-122 246-246 367-367-13-15-29-29-42-44-127 125-254 253-381 381-4 3-12 12-12 12-3 0-22-22-25-25-122-122-247-246-368-368-15 14-28 29-44 43 126 126 252 253 380 381 5 4 12 10 12 12 0 4-18 19-24 26-120 119-235 234-356 354-3 4-12 12-12 12 0 3 15 16 20 21 9 9 15 15 21 20 3 2 1 2 3 2 4 0 19-18 25-24 123-122 246-247 367-366z" horiz-adv-x="1000" />

<glyph glyph-name="帮助" unicode="&#xe806;" d="M509-119l0 21 0-21c-254 0-460 206-460 460 0 254 206 460 460 460 254 0 460-206 460-460 0-254-206-460-460-460z m0 878c-230 0-418-187-418-418 0-231 188-418 418-418l0 0c231 0 418 187 418 418 0 231-187 418-418 418z m0-515c-12 0-21 10-21 21l0 89c0 12 9 21 21 21 47 0 85 38 85 85 0 46-38 84-85 84-46 0-84-38-84-84 0-12-10-21-21-21-12 0-21 9-21 21 0 69 56 126 126 126s127-57 127-126c0-63-46-115-106-125l0-70c0-11-9-21-21-21z m35-95c0-19-16-35-35-35-19 0-35 16-35 35 0 19 16 35 35 35 19 0 35-16 35-35z" horiz-adv-x="1000" />

<glyph glyph-name="加载" unicode="&#xe807;" d="M681 89c-55-39-119-58-185-57-8 0-17 0-25 1-4 0-7 1-11 1-7 1-13 2-20 3-4 1-8 2-12 3-6 2-12 3-19 5-3 1-6 2-9 3-7 2-14 5-21 8-2 1-3 1-5 2-8 4-16 7-24 12 0 0 0 0-1 0-26 15-50 33-71 55-1 0-1 0-1 1-7 6-13 13-19 21-1 1-3 3-4 4-43 55-69 124-69 199l73 0c2 0 4 1 5 3 1 2 1 4 0 5l-123 187c-1 1-3 2-5 2-2 0-3-1-4-2l-123-187c-1-1-1-3 0-5 1-2 3-3 5-3l73 0c0-88 27-170 73-238 1-1 1-2 2-2 4-7 10-14 15-20 2-3 3-5 5-8 8-9 16-18 24-26 1-1 2-2 3-3 27-28 59-52 93-71 1 0 2-1 2-1 10-6 20-10 31-15 2-1 5-2 7-3 9-4 18-7 27-10 4-2 9-3 13-5 8-2 16-4 24-6 6-1 11-3 16-4 3 0 5-1 7-1 8-2 15-2 23-3 3-1 6-1 8-1 14-2 28-3 42-3 84 0 166 26 237 77 22 15 28 47 12 70-16 22-47 28-69 12m234 261c0 88-27 170-73 237-1 2-2 3-2 4-6 8-12 16-18 23-1 1-2 2-3 3-42 52-94 92-154 118-2 1-4 2-5 2-10 4-20 8-29 11-4 1-8 3-11 4-9 2-17 4-26 6-5 2-10 3-15 4-2 0-4 1-7 1-6 2-13 2-20 3-4 1-9 1-13 2-11 1-22 1-33 1-2 0-4 1-6 1 0 0-1 0-1 0-84 0-166-26-237-76-22-16-28-48-12-70s47-29 69-13c55 39 118 58 183 58 10 0 19-1 28-2 3 0 6 0 8-1 8-1 15-2 23-3 3-1 6-2 9-2 7-2 15-4 22-6 2-1 4-1 6-2 8-3 16-6 24-9 1 0 1-1 2-1 47-20 87-51 119-90 0 0 0-1 1-1 44-55 71-125 71-202l-73 0c-2 0-4-1-5-3-1-1 0-3 1-5l122-186c1-2 3-3 5-3 2 0 3 1 4 3l123 186c1 2 1 4 0 5-1 2-3 3-4 3l-73 0 0 0 0 0z" horiz-adv-x="1000" />

<glyph glyph-name="info-circled" unicode="&#xe808;" d="M571 82v89q0 8-5 13t-12 5h-54v286q0 8-5 13t-13 5h-178q-8 0-13-5t-5-13v-89q0-8 5-13t13-5h53v-179h-53q-8 0-13-5t-5-13v-89q0-8 5-13t13-5h250q7 0 12 5t5 13z m-71 500v89q0 8-5 13t-13 5h-107q-8 0-13-5t-5-13v-89q0-8 5-13t13-5h107q8 0 13 5t5 13z m357-232q0-117-57-215t-156-156-215-58-216 58-155 156-58 215 58 215 155 156 216 58 215-58 156-156 57-215z" horiz-adv-x="857.1" />

<glyph glyph-name="仓单" unicode="&#xe80a;" d="M786 682c10 0 17-8 17-17l0-630c0-9-7-17-17-17l-572 0c-10 0-17 8-17 17l0 630c0 9 7 17 17 17l572 0m0 40l-572 0c-32 0-57-26-57-57l0-630c0-31 25-57 57-57l572 0c32 0 57 26 57 57l0 630c0 31-25 57-57 57l0 0z m-171-172c57 0 57 0 114 0 0-13 0-27 0-40-57 0-57 0-114 0 0 13 0 27 0 40z m0-171c57 0 57 0 114 0 0-14 0-28 0-41-57 0-57 0-114 0 0 13 0 27 0 41z m0-172c57 0 57 0 114 0 0-14 0-27 0-41-57 0-57 0-114 0 0 14 0 27 0 41z m-58 131l0 41-64 0 61 226-42 0-62-226-75 0-62 226-42 0 61-226-61 0 0-41 123 0 0-75-123 0 0-41 123 0 0-131 41 0 0 131 122 0 0 41-122 0 0 75z" horiz-adv-x="1000" />

<glyph glyph-name="空数据" unicode="&#xe80b;" d="M704 647l-401 0-240-334 0-185c0-41 32-75 73-75l728 0c41 0 73 34 73 75l0 185-233 334z m15-344l-63-93-312 0-63 93-187 0 219 312 374 0 219-312-187 0z m-406 156l0 0" horiz-adv-x="1000" />

<glyph glyph-name="利息费用" unicode="&#xe80c;" d="M117-22c0-47 38-85 85-85l596 0c47 0 85 38 85 85l0 744c0 47-38 85-85 85l-596 0c-47 0-85-38-85-85l0-744z m85 872l596 0c70 0 128-57 128-128l0-744c0-71-58-128-128-128l-596 0c-70 0-127 57-127 128l0 744c0 71 57 128 127 128z m96-255l404 0c30 0 53 24 53 53 0 29-23 53-53 53l-404 0c-29 0-53-24-53-53 0-29 24-53 53-53z m0 149l404 0c53 0 96-43 96-96 0-53-43-96-96-96l-404 0c-53 0-96 43-96 96 0 53 43 96 96 96z m11-277c0 12 9 21 21 21l0 0c12 0 21-9 21-21l0-170c0-12-9-21-21-21l0 0c-12 0-21 9-21 21l0 170z m106-64c12 0 21-9 21-21l0 0c0-12-9-21-21-21l-170 0c-12 0-22 9-22 21l0 0c0 12 10 21 22 21l170 0z m-38-266c8 8 21 8 30 0l0 0c8-9 8-22 0-30l-121-121c-8-8-22-8-30 0l0 0c-8 8-8 22 0 30l121 121z m30-121c8-8 8-22 0-30l0 0c-9-8-22-8-30 0l-121 121c-8 8-8 21 0 30l0 0c8 8 22 8 30 0l121-121z m348 387c12 0 22-9 22-21l0 0c0-12-10-21-22-21l-170 0c-12 0-21 9-21 21l0 0c0 12 10 21 21 21l170 0z m0-319c12 0 22-9 22-21l0 0c0-12-10-21-22-21l-170 0c-12 0-21 9-21 21l0 0c0 12 10 21 21 21l170 0z m-85 21c12 0 22 10 22 22 0 11-10 21-22 21-11 0-21-10-21-21 0-12 10-22 21-22z m0-127c12 0 22 9 22 21 0 12-10 21-22 21-11 0-21-9-21-21 0-12 10-21 21-21z" horiz-adv-x="1000" />

<glyph glyph-name="日历-1" unicode="&#xe80d;" d="M760 703c0 0 0 0 0 0l-436 0c-16 0-28 13-28 28 0 15 12 28 28 28 0 0 0 0 0 0l436-1c15 0 28-12 28-28 0-15-13-27-28-27z m226 64l-56 0c-15 0-28-13-28-28s13-28 28-28l56 0c8 0 14-6 14-13l0-126-917 0 0 126c0 7 7 13 14 13l56 0c16 0 28 13 28 28s-12 28-28 28l-56 0c-38 0-69-31-69-69l0-756c0-39 31-64 70-64l890 0c37 0 68 24 68 61l0 759c0 38-32 69-70 69z m2-834l-890 0c-8 0-15 1-15 9l0 575 917 0 0-578c0-7-5-6-12-6z m-747 698c-16 0-28 13-28 28l0 143c0 16 12 28 28 28s28-12 28-28l0-143c0-15-13-28-28-28z m604 3c-15 0-28 13-28 28l0 138c0 15 13 27 28 27s28-12 28-27l0-138c0-15-13-28-28-28z m-386-335l-160 0c-15 0-28 13-28 28 0 15 13 28 28 28l160 0c15 0 28-13 28-28 0-15-13-28-28-28z m325 0l-160 0c-15 0-27 13-27 28 0 15 12 28 27 28l160 0c16 0 28-13 28-28 0-15-12-28-28-28z m-325-217l-160 0c-15 0-28 12-28 27s13 28 28 28l160 0c15 0 28-12 28-28s-13-27-28-27z m325 0l-160 0c-15 0-27 12-27 27s12 28 27 28l160 0c16 0 28-12 28-28s-12-27-28-27z" horiz-adv-x="1111" />

<glyph glyph-name="问号" unicode="&#xe80e;" d="M500 767c-231 0-417-187-417-417 0-230 186-417 417-417 230 0 416 187 416 417 0 230-186 417-416 417z m0-800c-212 0-384 172-384 383 0 211 172 383 384 383 211 0 383-172 383-383 0-211-172-383-383-383z m-2 601c-84 0-132-52-132-135l36 0c-1 60 31 105 94 105 46 0 84-33 84-79 0-30-17-55-38-75-44-42-57-61-59-117l37 0c2 51 1 50 46 94 30 28 51 56 51 100 0 67-54 107-119 107z m2-401m-34 0a2 2 0 1 1 67 0 2 2 0 1 1-67 0z" horiz-adv-x="1000" />

<glyph glyph-name="账户" unicode="&#xe80f;" d="M896 706l-771 0c-31 0-57-25-57-57l0-554c0-31 26-56 57-56l771 0c32 0 57 25 57 56l0 554c0 32-25 57-57 57m15-611c0-8-6-14-15-14l-771 0c-8 0-15 6-15 14l0 554c0 9 7 15 15 15l771 0c9 0 15-6 15-15l0-554z m-488 256c30 24 51 60 51 102 0 71-58 129-129 129-71 0-128-58-128-129 0-42 20-78 51-102-69-30-117-99-117-178 0-12 9-21 21-21 11 0 21 9 21 21 0 82 66 150 148 152 1 0 3-1 4-1 2 0 3 1 4 1 82-2 149-70 149-152 0-12 9-21 21-21s21 9 21 21c0 79-49 148-117 178m-164 102c0 48 38 87 86 87 48 0 87-39 87-87 0-46-37-84-83-86-1 0-2 0-4 0-1 0-3 0-4 0-46 2-82 40-82 86m568 90l-281 0c-12 0-21-9-21-21 0-11 9-21 21-21l281 0c12 0 21 10 21 21 0 12-9 21-21 21m0-129l-281 0c-12 0-21-10-21-21 0-12 9-21 21-21l281 0c12 0 21 9 21 21 0 11-9 21-21 21m0-130l-239 0c-12 0-21-10-21-21 0-12 9-21 21-21l239 0c12 0 21 9 21 21 0 11-9 21-21 21" horiz-adv-x="1000" />

<glyph glyph-name="注解" unicode="&#xe810;" d="M493-100c-246 0-445 199-445 445s199 444 445 444c245 0 444-199 444-444s-199-445-444-445l0 0z m0 934c-271 0-490-219-490-489 0-271 219-490 490-490 270 0 489 219 489 490 0 270-219 489-489 489l0 0z m48-244c-17 0-32-6-44-17-13-11-19-25-19-41 0-15 6-29 19-40 12-11 27-17 44-17 18 0 32 6 45 17 12 11 18 25 18 40 0 16-6 30-18 41s-27 17-45 17l0 0z m17-446c-14 0-23 2-29 7-5 4-8 12-8 24 0 5 1 12 2 21 2 10 4 18 6 25l27 91c2 8 4 17 5 27 1 10 1 17 1 21 0 19-7 34-20 46-14 12-34 18-59 18-14 0-29-3-45-7-16-5-32-11-50-18l-7-28c6 2 12 4 19 6 7 2 14 3 21 3 14 0 23-2 28-7 5-4 7-12 7-24 0-6 0-13-2-21-2-8-4-16-6-25l-26-91c-3-9-4-18-5-25-1-8-2-15-2-23 0-18 7-33 21-46 14-12 34-18 60-18 16 0 31 2 44 7 12 4 29 10 50 18l7 28c-3-2-9-4-17-6-8-2-16-3-22-3l0 0z" horiz-adv-x="1000" />

<glyph glyph-name="当月每日资产负债情况" unicode="&#xe811;" d="M414 554c-10-33-25-68-39-100l0-318-29 0 0 264c-10-21-25-39-39-57-3 7-14 25-18 32 40 46 75 114 97 186l28-7z m129-254l28 0 0-43c0-39-14-89-146-121-4 7-11 18-18 25 125 25 136 71 136 100l0 39z m3 196l-117 0 0 25 117 0 0 43 29 0 0-43 111 0 0-25-111 0 0-32 100 0 0-25-100 0 0-35 129 0 0-25-293 0 0 25 132 0 0 35-107 0 0 25 107 0 0 32z m100-271l0 107-182 0 0-107-25 0 0 129 240 0 0-129-33 0z m-57-4c43-14 97-39 122-57l-18-21c-29 18-82 43-122 57l18 21z m-89-300c-236 0-429 193-429 429s193 429 429 429 429-193 429-429c0-236-193-429-429-429z m0 825c-218 0-393-175-393-392s175-393 393-393 393 175 393 393c0 214-175 392-393 392z" horiz-adv-x="1000" />

<glyph glyph-name="订阅" unicode="&#xe812;" d="M903 160c-8 8-22 18-41 30-6 3-9 10-9 17l0 2c1 51 2 127-12 205-16 94-50 168-101 219-39 40-90 67-150 80-3 19-12 35-26 48-17 16-39 24-63 24-24 0-47-8-64-24-14-13-23-29-25-48-60-13-110-39-150-79-114-116-111-315-110-421l0-6c0-7-3-13-9-17-19-12-33-22-42-29-25-21-38-51-38-83 0-27 22-50 50-50l271 0c0-64 52-116 117-116s116 52 117 116l269 0c29 0 52 24 52 52 0 31-13 60-36 80z m-402 586c14 0 27-5 37-13 4-4 7-9 9-13-15 1-30 2-46 2-16 0-32-1-47-2 8 16 26 26 47 26z m0-795c-43 0-78 35-78 77l156 0c-1-42-36-77-78-77z m386 116l-774 0c-6 0-11 5-11 11 0 21 8 40 24 53 8 6 21 15 38 26 17 11 28 30 27 50l0 6c-1 101-4 289 99 393 50 51 121 77 211 77 90 0 161-26 212-77 44-46 75-113 90-199 13-74 12-148 11-198l0-2c0-20 10-39 27-50 16-10 29-20 36-26 15-13 23-31 23-51 0-7-6-13-13-13z m-447 575c-23 0-57-22-80-43-20-17-53-52-62-93-2-11 4-21 15-24 1 0 3 0 4 0 9 0 17 6 19 16 5 22 23 48 50 72 26 23 48 33 54 33 11 0 20 8 20 19 0 11-9 20-20 20z" horiz-adv-x="1000" />

<glyph glyph-name="对账单" unicode="&#xe813;" d="M787 610l-38 0-38 0c-9 0-16 9-16 19l0 27 0 68c0 35-28 64-61 64l-40 0-385 0c-34 0-61-29-61-64l0-748c0-35 27-64 61-64l579 0c34 0 61 29 61 64l0 555 0 16c0 35-29 63-62 63z m17-86l0-552c0-11-7-19-16-19l-579 0c-9 0-17 8-17 19l0 753c0 10 8 19 17 19l385 0 42 0c10 0 17-9 17-19l0-69 0-24c0-35 27-64 61-64l42 0 32 0c9 0 16-8 16-19l0-25z m-102-138l-328-328c-9-9-9-22 0-31 4-4 9-6 15-6 6 0 11 2 16 6l328 328c8 9 8 23 0 31-9 9-23 9-31 0z m-401 72l372 0c13 0 44 10 44 22 0 12-31 22-44 22l-372 0c-12 0-21-10-21-22 0-12 9-22 21-22z m1-87c-13 0-22-10-22-22 0-12 9-22 22-22l196 0c13 0 22 10 22 22 0 12-9 22-22 22l-196 0z m109-153c0 12-10 22-22 22l-87 0c-13 0-22-10-22-22 0-12 9-22 22-22l87 0c12 0 22 10 22 22z" horiz-adv-x="1000" />

<glyph glyph-name="服务器出错" unicode="&#xe814;" d="M88-35c-31 0-55 24-55 54l0 744c0 30 24 54 55 54l726 0c30 0 55-24 55-54l0-456 33-65 0 521c0 48-40 87-88 87l-726 0c-49 0-88-39-88-87l0-744c0-48 39-87 88-87l320 0 33 33-353 0z m781 590l-836 0 0-33 836 0z m-705-197c18 0 32 15 32 33 0 18-14 33-32 33-18 0-33-15-33-33 0-18 15-33 33-33z m139 0c18 0 32 15 32 33 0 18-14 33-32 33-18 0-32-15-32-33 0-18 14-33 32-33z m139 0c18 0 33 15 33 33 0 18-15 33-33 33-18 0-32-15-32-33 0-18 14-33 32-33z m-278-295c18 0 32 15 32 33 0 18-14 33-32 33-18 0-33-15-33-33 0-18 15-33 33-33z m139 0c18 0 32 15 32 33 0 18-14 33-32 33-18 0-32-15-32-33 0-18 14-33 32-33z m304 164l0 33-574 0 0-33z m-443 426c18 0 32 15 32 33 0 18-14 33-32 33-18 0-33-15-33-33 0-18 15-33 33-33z m139 0c18 0 32 15 32 33 0 18-14 33-32 33-18 0-32-15-32-33 0-18 14-33 32-33z m139 0c18 0 33 15 33 33 0 18-15 33-33 33-18 0-32-15-32-33 0-18 14-33 32-33z m-16-728c-17-29-10-42 24-42l603 0c33 0 40 13 23 42l-298 496c-18 29-36 29-54 0l-298-496z m380 513l298-496c31-51 8-92-51-92l-603 0c-59 0-82 41-52 92l298 496c31 50 80 50 110 0z m-82-470c0-15 12-27 26-27 15 0 27 12 27 27 0 14-12 27-27 27-14 0-26-13-26-27l0 0z m52 266c0 16-6 28-25 28-20 0-24-12-24-28 0 0 8-183 8-183 0-10 3-19 16-19 13 0 16 8 16 19l9 183z" horiz-adv-x="1132" />

<glyph glyph-name="感叹号" unicode="&#xe815;" d="M967-52l-934 0c-12 0-22 6-27 16s-6 21 0 31l467 810c11 19 43 19 54 0l468-810c5-10 5-22 0-31-6-10-16-16-28-16z m-880 63l826 0-413 715-413-715z m413 526c-17 0-31-14-31-31l0-250c0-17 14-31 31-31s31 14 31 31l0 250c0 17-14 31-31 31l0 0z m0-374c-17 0-31-14-31-32s14-31 31-31c17 0 31 14 31 31s-14 32-31 32l0 0z" horiz-adv-x="1000" />

<glyph glyph-name="客户交易特征" unicode="&#xe816;" d="M295 786c-121 0-219-97-219-218 0-59 24-113 63-153-39-24-64-67-64-116 0 0 116-385 191-385l54 0c75 0 191 385 191 385 0 48-25 90-62 115l0 0c39 40 64 94 64 154 0 121-98 218-218 218z m0-43c96 0 174-79 174-175 0-96-78-174-174-174-97 0-175 78-175 174 0 96 78 175 175 175z m172-438c-50-166-120-325-152-348l-45 0c-32 23-100 179-151 348 2 35 23 66 56 81 0 0 0 0 0 0 35-23 76-36 120-36 43 0 83 13 117 35 1 0 2-1 2-1 31-15 51-45 53-79z m-36 93c0 0 1 0 1 1 0-1-1-1-1-1z m124-353l370 0 0-44-370 0 0 44z m65 218l305 0 0-44-305 0 0 44z m-22 196l327 0 0-44-327 0 0 44z m22 218l305 0 0-43-305 0 0 43z" horiz-adv-x="1000" />

<glyph glyph-name="向上箭头" unicode="&#xe817;" d="M434 588v-609c0-19 15-33 34-33h65c18 0 33 14 33 33v619l195-192c6-6 17-6 24 1l46 46c6 7 7 17 0 24l-262 258c-1 2-2 3-4 5l-50 50c-4 4-9 6-15 6-4 0-9-2-13-5l-36-37-282-270c-7-8-6-19 1-26l50-51c7-7 19-7 26 0l188 181z" horiz-adv-x="1000" />

<glyph glyph-name="spin4" unicode="&#xe834;" d="M498 850c-114 0-228-39-320-116l0 0c173 140 428 130 588-31 134-134 164-332 89-495-10-29-5-50 12-68 21-20 61-23 84 0 3 3 12 15 15 24 71 180 33 393-112 539-99 98-228 147-356 147z m-409-274c-14 0-29-5-39-16-3-3-13-15-15-24-71-180-34-393 112-539 185-185 479-195 676-31l0 0c-173-140-428-130-589 31-134 134-163 333-89 495 11 29 6 50-12 68-11 11-27 17-44 16z" horiz-adv-x="1001" />

<glyph glyph-name="spin6" unicode="&#xe839;" d="M855 9c-189-190-520-172-705 13-190 190-200 494-28 695 11 13 21 26 35 34 36 23 85 18 117-13 30-31 35-76 16-112-5-9-9-15-16-22-140-151-145-379-8-516 153-153 407-121 542 34 106 122 142 297 77 451-83 198-305 291-510 222l0 1c236 82 492-24 588-252 71-167 37-355-72-493-11-15-23-29-36-42z" horiz-adv-x="1000" />
</font>
</defs>
</svg>
